<svg version="1.1" xmlns="http://www.w3.org/2000/svg" xmlns:xlink="http://www.w3.org/1999/xlink" role="img" width="506" height="106" viewbox="0 0 506 106"><title>one more joke please</title><desc>Generated by logo.svg, https://github.com/bubkoo/logo.svg</desc><path d="M2.69 62.89Q2.69 61.27 2.97 59.13Q3.25 56.98 3.88 54.80Q4.52 52.63 5.46 50.52Q6.41 48.41 7.75 46.75Q9.09 45.10 10.84 44.08Q12.60 43.06 14.78 43.06Q17.03 43.06 18.96 44.61Q20.90 46.16 22.27 48.62Q23.64 51.08 24.34 54.10Q25.05 57.13 24.91 60.01Q24.91 64.23 23.29 67.53Q21.67 70.84 19.18 72.88Q16.68 74.91 13.83 75.62Q10.98 76.32 8.49 75.23Q5.99 74.14 4.34 71.12Q2.69 68.09 2.69 62.89M5.29 63.17Q5.50 67.46 6.77 69.78Q8.03 72.10 9.82 72.84Q11.62 73.58 13.73 72.88Q15.84 72.17 17.66 70.38Q19.49 68.59 20.79 65.88Q22.09 63.17 22.23 59.80Q22.38 57.27 21.85 54.88Q21.32 52.48 20.37 50.62Q19.42 48.76 18.05 47.67Q16.68 46.58 14.92 46.58Q13.23 46.58 11.90 47.42Q10.56 48.27 9.47 49.71Q8.38 51.15 7.61 52.98Q6.84 54.80 6.31 56.63Q5.78 58.46 5.54 60.18Q5.29 61.91 5.29 63.17ZM29.48 75.41Q29.34 74.28 29.23 72.14Q29.13 69.99 29.02 67.29Q28.91 64.58 28.84 61.63Q28.77 58.67 28.70 56Q28.63 53.33 28.53 51.18Q28.42 49.04 28.21 47.91Q28.21 47.84 28.18 47.56Q28.14 47.28 28.11 46.93Q28.07 46.58 28.07 46.33Q28.07 46.09 28.07 45.95Q29.13 45.10 29.86 45.38Q30.60 45.66 31.09 46.61Q31.59 47.56 31.80 48.97Q32.01 50.38 32.11 51.78Q32.22 53.19 32.22 54.35Q32.22 55.51 32.22 56Q32.36 54.80 32.64 53.19Q32.92 51.57 33.48 49.88Q34.05 48.20 34.86 46.54Q35.66 44.89 36.86 43.63Q38.05 42.36 39.57 41.66Q41.08 40.95 43.05 41.09Q46.14 41.23 48.14 42.78Q50.15 44.33 51.31 46.93Q52.47 49.53 53.00 52.91Q53.52 56.28 53.70 60.08Q53.88 63.88 53.80 67.78Q53.73 71.68 53.73 75.27Q53.10 75.41 52.47 75.72Q51.84 76.04 51.41 76.00Q50.99 75.97 50.82 75.37Q50.64 74.77 50.92 73.02Q50.99 71.75 51.17 69.11Q51.34 66.48 51.31 63.24Q51.27 60.01 50.92 56.56Q50.57 53.12 49.62 50.27Q48.67 47.42 46.91 45.63Q45.16 43.84 42.34 43.84Q39.46 45.03 37.53 48.34Q35.59 51.64 34.43 56.07Q33.27 60.50 32.75 65.67Q32.22 70.84 32.15 75.76Q32.01 75.69 31.62 75.69Q31.23 75.69 30.78 75.65Q30.32 75.62 29.93 75.55Q29.55 75.48 29.48 75.41ZM57.39 59.23Q57.39 57.13 58.30 54.56Q59.22 51.99 60.80 49.78Q62.38 47.56 64.39 46.05Q66.39 44.54 68.57 44.54Q69.77 44.54 70.93 45.03Q72.09 45.52 73.18 46.33Q74.27 47.14 75.14 48.16Q76.02 49.18 76.52 50.30Q77.01 51.43 77.04 52.48Q77.08 53.54 76.45 54.31L61.61 57.05Q61.33 57.13 61.12 57.72Q60.91 58.32 60.77 59.23Q60.63 60.15 60.52 61.24Q60.41 62.33 60.34 63.35Q60.27 64.37 60.27 65.18Q60.27 65.98 60.27 66.41Q60.27 68.38 61.22 69.61Q62.17 70.84 63.65 71.47Q65.13 72.10 66.99 72.31Q68.85 72.52 70.68 72.52Q72.51 72.52 74.13 72.38Q75.74 72.24 76.80 72.24Q76.80 72.52 76.59 72.88Q76.38 73.23 76.09 73.54Q75.81 73.86 75.53 74.11Q75.25 74.35 75.18 74.42Q74.62 74.56 73.46 74.81Q72.30 75.05 71.00 75.27Q69.70 75.48 68.57 75.62Q67.45 75.76 67.02 75.76Q64.84 76.18 63.23 75.69Q61.61 75.20 60.48 74Q59.36 72.80 58.66 71.08Q57.95 69.36 57.60 67.39Q57.25 65.42 57.21 63.31Q57.18 61.20 57.39 59.23M67.59 47.21Q66.95 47.21 65.93 47.88Q64.91 48.55 64.04 49.57Q63.16 50.59 62.56 51.75Q61.96 52.91 62.17 53.75Q64 53.96 65.97 53.68Q67.94 53.40 69.55 52.80Q71.17 52.20 72.23 51.39Q73.28 50.59 73.25 49.74Q73.21 48.90 71.91 48.23Q70.61 47.56 67.59 47.21ZM107.59 48.34Q108.44 48.34 109.42 48.76Q110.41 49.18 110.83 50.45Q111.39 48.05 112.55 46.58Q113.71 45.10 115.22 44.54Q116.73 43.98 118.39 44.15Q120.04 44.33 121.48 45.17Q122.92 46.02 124.01 47.35Q125.10 48.69 125.52 50.45Q126.30 48.27 127.60 46.40Q128.90 44.54 130.48 43.27Q132.06 42.01 133.79 41.52Q135.51 41.02 137.02 41.55Q138.53 42.08 139.69 43.80Q140.85 45.52 141.34 48.76Q141.48 49.67 141.70 51.46Q141.91 53.26 142.15 55.51Q142.40 57.76 142.71 60.25Q143.03 62.75 143.28 65Q143.52 67.25 143.73 69.04Q143.95 70.84 144.09 71.68Q144.09 72.38 144.02 73.23Q143.95 74.07 143.70 74.67Q143.45 75.27 142.93 75.44Q142.40 75.62 141.34 74.84Q141.34 74 141.13 72.10Q140.92 70.20 140.71 67.71Q140.50 65.21 140.18 62.43Q139.87 59.66 139.55 57.20Q139.23 54.73 139.02 52.84Q138.81 50.94 138.60 50.16Q137.55 46.93 136.39 45.66Q135.23 44.40 134.07 44.54Q132.91 44.68 131.85 46.02Q130.80 47.35 129.95 49.39Q129.11 51.43 128.37 53.93Q127.63 56.42 127.25 58.88Q126.86 61.34 126.75 63.52Q126.65 65.70 127 67.11L124.26 67.67Q124.47 60.92 123.80 56.60Q123.13 52.27 121.97 49.95Q120.81 47.63 119.34 47.18Q117.86 46.72 116.42 47.77Q114.98 48.83 113.78 51.29Q112.59 53.75 111.99 57.23Q111.39 60.71 111.53 65.07Q111.67 69.43 113.01 74.42L110.34 74.42Q110.34 74.42 110.16 73.09Q109.98 71.75 109.74 69.68Q109.49 67.60 109.21 64.96Q108.93 62.33 108.65 59.62Q108.37 56.91 108.09 54.42Q107.80 51.92 107.59 50.16Q107.59 49.95 107.59 49.21Q107.59 48.48 107.59 48.34ZM147.46 62.89Q147.46 61.27 147.74 59.13Q148.02 56.98 148.66 54.80Q149.29 52.63 150.24 50.52Q151.19 48.41 152.52 46.75Q153.86 45.10 155.62 44.08Q157.38 43.06 159.55 43.06Q161.80 43.06 163.74 44.61Q165.67 46.16 167.04 48.62Q168.41 51.08 169.12 54.10Q169.82 57.13 169.68 60.01Q169.68 64.23 168.06 67.53Q166.45 70.84 163.95 72.88Q161.45 74.91 158.61 75.62Q155.76 76.32 153.26 75.23Q150.77 74.14 149.11 71.12Q147.46 68.09 147.46 62.89M150.06 63.17Q150.27 67.46 151.54 69.78Q152.80 72.10 154.60 72.84Q156.39 73.58 158.50 72.88Q160.61 72.17 162.44 70.38Q164.27 68.59 165.57 65.88Q166.87 63.17 167.01 59.80Q167.15 57.27 166.62 54.88Q166.09 52.48 165.14 50.62Q164.20 48.76 162.82 47.67Q161.45 46.58 159.70 46.58Q158.01 46.58 156.67 47.42Q155.34 48.27 154.25 49.71Q153.16 51.15 152.38 52.98Q151.61 54.80 151.08 56.63Q150.55 58.46 150.31 60.18Q150.06 61.91 150.06 63.17ZM172.77 48.34Q173.62 47.98 174.25 48.20Q174.88 48.41 175.30 48.97Q175.73 49.53 175.94 50.27Q176.15 51.01 176.29 51.71Q177.20 50.16 178.93 49.21Q180.65 48.27 182.62 47.95Q184.59 47.63 186.55 47.81Q188.52 47.98 189.89 48.65Q191.27 49.32 191.83 50.48Q192.39 51.64 191.55 53.19Q189.72 52.13 187.71 51.50Q185.71 50.87 183.81 51.08Q181.91 51.29 180.30 52.52Q178.68 53.75 177.63 56.42Q176.57 59.09 176.32 63.49Q176.08 67.88 176.92 74.42L174.25 74.42Q174.25 74.42 174.14 73.26Q174.04 72.10 173.93 70.20Q173.83 68.30 173.65 65.98Q173.48 63.66 173.34 61.27Q173.20 58.88 173.09 56.67Q172.98 54.45 172.84 52.84Q172.84 52.63 172.81 51.99Q172.77 51.36 172.77 50.62Q172.77 49.88 172.77 49.25Q172.77 48.62 172.77 48.34ZM195.20 59.23Q195.20 57.13 196.12 54.56Q197.03 51.99 198.61 49.78Q200.20 47.56 202.20 46.05Q204.20 44.54 206.38 44.54Q207.58 44.54 208.74 45.03Q209.90 45.52 210.99 46.33Q212.08 47.14 212.96 48.16Q213.84 49.18 214.33 50.30Q214.82 51.43 214.86 52.48Q214.89 53.54 214.26 54.31L199.42 57.05Q199.14 57.13 198.93 57.72Q198.72 58.32 198.58 59.23Q198.44 60.15 198.33 61.24Q198.23 62.33 198.16 63.35Q198.09 64.37 198.09 65.18Q198.09 65.98 198.09 66.41Q198.09 68.38 199.04 69.61Q199.98 70.84 201.46 71.47Q202.94 72.10 204.80 72.31Q206.66 72.52 208.49 72.52Q210.32 72.52 211.94 72.38Q213.55 72.24 214.61 72.24Q214.61 72.52 214.40 72.88Q214.19 73.23 213.91 73.54Q213.63 73.86 213.34 74.11Q213.06 74.35 212.99 74.42Q212.43 74.56 211.27 74.81Q210.11 75.05 208.81 75.27Q207.51 75.48 206.38 75.62Q205.26 75.76 204.84 75.76Q202.66 76.18 201.04 75.69Q199.42 75.20 198.30 74Q197.17 72.80 196.47 71.08Q195.77 69.36 195.41 67.39Q195.06 65.42 195.03 63.31Q194.99 61.20 195.20 59.23M205.40 47.21Q204.77 47.21 203.75 47.88Q202.73 48.55 201.85 49.57Q200.97 50.59 200.37 51.75Q199.77 52.91 199.98 53.75Q201.81 53.96 203.78 53.68Q205.75 53.40 207.37 52.80Q208.98 52.20 210.04 51.39Q211.09 50.59 211.06 49.74Q211.02 48.90 209.72 48.23Q208.42 47.56 205.40 47.21ZM228.32 97.91Q228.32 97.20 228.43 96.71Q228.53 96.22 228.85 96.15Q229.16 96.08 229.73 96.46Q230.29 96.85 231.13 97.98Q231.13 98.89 232.43 99.45Q233.73 100.02 235.42 100.33Q237.11 100.65 238.83 100.72Q240.55 100.79 241.33 100.79Q244.77 100.79 247.20 99.56Q249.63 98.33 251.21 96.25Q252.79 94.18 253.53 91.40Q254.27 88.63 254.27 85.60Q254.27 81.24 253.67 77.20Q253.07 73.16 252.09 69.11Q251.10 65.07 249.84 60.89Q248.57 56.70 247.30 52.06Q246.81 49.95 247.02 48.90Q247.23 47.84 247.76 47.53Q248.29 47.21 248.96 47.42Q249.63 47.63 250.05 48.05Q251.24 52.48 252.44 57.16Q253.63 61.84 254.69 66.69Q255.74 71.54 256.38 76.46Q257.01 81.38 257.01 86.16Q257.01 89.47 256.16 92.60Q255.32 95.73 253.53 98.12Q251.73 100.51 249.06 101.98Q246.39 103.46 242.66 103.46Q240.98 103.46 238.52 103.39Q236.05 103.32 233.77 102.79Q231.48 102.27 229.90 101.18Q228.32 100.09 228.32 97.91M244.14 30.27Q245.05 30.27 246.11 30.51Q247.16 30.76 248.08 31.29Q248.99 31.81 249.59 32.62Q250.19 33.43 250.19 34.55Q250.19 37.30 247.30 37.30Q245.97 37.30 245.27 36.59Q244.56 35.89 244.32 34.84Q244.07 33.78 244.11 32.55Q244.14 31.32 244.14 30.27M247.30 34.20Q247.09 34.20 247.09 34.52Q247.09 34.84 247.30 34.84Q247.59 34.84 247.59 34.52Q247.59 34.20 247.30 34.20ZM260.59 62.89Q260.59 61.27 260.88 59.13Q261.16 56.98 261.79 54.80Q262.42 52.63 263.37 50.52Q264.32 48.41 265.66 46.75Q266.99 45.10 268.75 44.08Q270.51 43.06 272.69 43.06Q274.94 43.06 276.87 44.61Q278.80 46.16 280.18 48.62Q281.55 51.08 282.25 54.10Q282.95 57.13 282.81 60.01Q282.81 64.23 281.20 67.53Q279.58 70.84 277.08 72.88Q274.59 74.91 271.74 75.62Q268.89 76.32 266.39 75.23Q263.90 74.14 262.25 71.12Q260.59 68.09 260.59 62.89M263.20 63.17Q263.41 67.46 264.67 69.78Q265.94 72.10 267.73 72.84Q269.52 73.58 271.63 72.88Q273.74 72.17 275.57 70.38Q277.40 68.59 278.70 65.88Q280 63.17 280.14 59.80Q280.28 57.27 279.75 54.88Q279.23 52.48 278.28 50.62Q277.33 48.76 275.96 47.67Q274.59 46.58 272.83 46.58Q271.14 46.58 269.80 47.42Q268.47 48.27 267.38 49.71Q266.29 51.15 265.52 52.98Q264.74 54.80 264.21 56.63Q263.69 58.46 263.44 60.18Q263.20 61.91 263.20 63.17ZM288.93 73.86Q288.86 72.38 288.61 69.32Q288.37 66.27 288.09 62.43Q287.80 58.60 287.52 54.31Q287.24 50.02 287.00 46.19Q286.75 42.36 286.54 39.30Q286.33 36.24 286.26 34.77Q286.19 34.13 286.15 32.55Q286.12 30.97 286.05 29.18Q285.98 27.38 285.94 25.80Q285.91 24.22 285.91 23.59Q286.89 23.59 287.66 23.97Q288.44 24.36 288.93 25.27Q289.07 26.75 289.25 29.46Q289.42 32.16 289.63 35.68Q289.84 39.20 290.09 43.20Q290.34 47.21 290.55 51.15Q290.76 50.80 290.97 50.52Q291.18 50.23 291.25 50.16Q292.02 49.32 293.08 48.20Q294.13 47.07 295.29 45.88Q296.45 44.68 297.61 43.52Q298.77 42.36 299.72 41.41Q300.67 40.46 301.30 39.90Q301.94 39.34 302.08 39.34L304.75 40.67Q303.55 41.73 302.01 43.13Q300.46 44.54 298.98 46.12Q297.51 47.70 296.14 49.43Q294.77 51.15 293.92 52.84Q293.92 52.91 293.89 53.15Q293.85 53.40 293.85 53.54Q293.85 53.61 293.89 53.86Q293.92 54.10 293.92 54.17L310.16 73.09Q310.16 73.16 310.20 73.37Q310.23 73.58 310.23 73.72Q310.23 75.05 308.83 75.76L291.25 55.51Q291.18 55.44 291.07 55.26Q290.97 55.09 290.83 54.88L291.60 68.52Q291.60 68.87 291.64 69.85Q291.67 70.84 291.71 72.00Q291.74 73.16 291.78 74.18Q291.81 75.20 291.81 75.55Q290.90 75.55 290.13 75.16Q289.35 74.77 288.93 73.86ZM314.03 59.23Q314.03 57.13 314.95 54.56Q315.86 51.99 317.44 49.78Q319.02 47.56 321.03 46.05Q323.03 44.54 325.21 44.54Q326.41 44.54 327.57 45.03Q328.73 45.52 329.82 46.33Q330.91 47.14 331.79 48.16Q332.66 49.18 333.16 50.30Q333.65 51.43 333.68 52.48Q333.72 53.54 333.09 54.31L318.25 57.05Q317.97 57.13 317.76 57.72Q317.55 58.32 317.41 59.23Q317.27 60.15 317.16 61.24Q317.05 62.33 316.98 63.35Q316.91 64.37 316.91 65.18Q316.91 65.98 316.91 66.41Q316.91 68.38 317.86 69.61Q318.81 70.84 320.29 71.47Q321.77 72.10 323.63 72.31Q325.49 72.52 327.32 72.52Q329.15 72.52 330.77 72.38Q332.38 72.24 333.44 72.24Q333.44 72.52 333.23 72.88Q333.02 73.23 332.73 73.54Q332.45 73.86 332.17 74.11Q331.89 74.35 331.82 74.42Q331.26 74.56 330.10 74.81Q328.94 75.05 327.64 75.27Q326.34 75.48 325.21 75.62Q324.09 75.76 323.66 75.76Q321.48 76.18 319.87 75.69Q318.25 75.20 317.13 74Q316 72.80 315.30 71.08Q314.59 69.36 314.24 67.39Q313.89 65.42 313.86 63.31Q313.82 61.20 314.03 59.23M324.23 47.21Q323.59 47.21 322.57 47.88Q321.55 48.55 320.68 49.57Q319.80 50.59 319.20 51.75Q318.60 52.91 318.81 53.75Q320.64 53.96 322.61 53.68Q324.58 53.40 326.20 52.80Q327.81 52.20 328.87 51.39Q329.92 50.59 329.89 49.74Q329.85 48.90 328.55 48.23Q327.25 47.56 324.23 47.21ZM366.63 57.55Q366.34 57.76 365.85 57.69Q365.36 57.62 364.94 57.44Q364.52 57.27 364.20 56.95Q363.88 56.63 363.88 56.21Q363.88 53.82 365.36 51.82Q366.84 49.81 369.02 48.37Q371.20 46.93 373.66 46.12Q376.12 45.31 378.16 45.31Q381.39 45.31 384.03 46.40Q386.66 47.49 388.53 49.39Q390.39 51.29 391.41 53.82Q392.43 56.35 392.43 59.23Q392.50 62.89 390.78 65.91Q389.05 68.94 386.28 71.08Q383.50 73.23 380.09 74.32Q376.68 75.41 373.38 75.13Q373.52 77.66 373.30 80.93Q373.09 84.20 372.74 88.06Q372.39 91.93 371.86 96.25Q371.34 100.58 370.77 105.15Q370.77 105.22 370.35 105.22Q369.93 105.22 369.47 105.11Q369.02 105.01 368.56 104.90Q368.10 104.80 368.03 104.87Q368.52 99.03 368.80 93.05Q369.09 87.08 369.02 81.07Q368.95 75.05 368.38 69.15Q367.82 63.24 366.63 57.55M377.31 49.25Q375.98 49.32 374.43 49.64Q372.88 49.95 371.69 50.59Q370.49 51.22 369.79 52.27Q369.09 53.33 369.30 54.88Q369.44 55.58 369.68 56.91Q369.93 58.25 370.25 59.94Q370.56 61.63 370.88 63.45Q371.20 65.28 371.51 66.97Q371.83 68.66 372.07 70.03Q372.32 71.40 372.46 72.10Q373.30 71.96 374.85 71.82Q376.40 71.68 378.16 71.26Q379.91 70.84 381.78 70.10Q383.64 69.36 385.26 68.02Q386.88 66.69 388.11 64.68Q389.34 62.68 389.76 59.73Q389.76 56.98 388.77 55.02Q387.79 53.05 386.10 51.75Q384.41 50.45 382.13 49.85Q379.84 49.25 377.31 49.25ZM397.91 21.13Q398.90 21.27 399.64 21.65Q400.38 22.04 400.80 23.02Q400.80 24.36 400.90 26.71Q401.01 29.07 401.11 32.16Q401.22 35.26 401.36 38.84Q401.50 42.43 401.64 46.09Q401.78 49.74 401.89 53.33Q401.99 56.91 402.10 60.01Q402.20 63.10 402.27 65.49Q402.34 67.88 402.41 69.15Q402.41 69.29 402.38 69.64Q402.34 69.99 402.31 70.48Q402.27 70.98 402.24 71.43Q402.20 71.89 402.20 72.10Q402.13 72.52 402.13 73.12Q402.13 73.72 401.99 74.28Q401.85 74.84 401.54 75.30Q401.22 75.76 400.52 75.83L399.32 74.35Q399.25 74.28 399.14 71.71Q399.04 69.15 398.86 65.04Q398.69 60.92 398.55 55.75Q398.41 50.59 398.23 45.31Q398.05 40.04 397.91 35.19Q397.77 30.34 397.70 26.82Q397.70 26.54 397.74 25.70Q397.77 24.85 397.81 23.97Q397.84 23.09 397.88 22.29Q397.91 21.48 397.91 21.13ZM406.84 59.23Q406.84 57.13 407.76 54.56Q408.67 51.99 410.25 49.78Q411.84 47.56 413.84 46.05Q415.84 44.54 418.02 44.54Q419.22 44.54 420.38 45.03Q421.54 45.52 422.63 46.33Q423.72 47.14 424.60 48.16Q425.48 49.18 425.97 50.30Q426.46 51.43 426.50 52.48Q426.53 53.54 425.90 54.31L411.06 57.05Q410.78 57.13 410.57 57.72Q410.36 58.32 410.22 59.23Q410.08 60.15 409.97 61.24Q409.87 62.33 409.80 63.35Q409.73 64.37 409.73 65.18Q409.73 65.98 409.73 66.41Q409.73 68.38 410.68 69.61Q411.63 70.84 413.10 71.47Q414.58 72.10 416.44 72.31Q418.30 72.52 420.13 72.52Q421.96 72.52 423.58 72.38Q425.20 72.24 426.25 72.24Q426.25 72.52 426.04 72.88Q425.83 73.23 425.55 73.54Q425.27 73.86 424.98 74.11Q424.70 74.35 424.63 74.42Q424.07 74.56 422.91 74.81Q421.75 75.05 420.45 75.27Q419.15 75.48 418.02 75.62Q416.90 75.76 416.48 75.76Q414.30 76.18 412.68 75.69Q411.06 75.20 409.94 74Q408.81 72.80 408.11 71.08Q407.41 69.36 407.05 67.39Q406.70 65.42 406.67 63.31Q406.63 61.20 406.84 59.23M417.04 47.21Q416.41 47.21 415.39 47.88Q414.37 48.55 413.49 49.57Q412.61 50.59 412.01 51.75Q411.41 52.91 411.63 53.75Q413.45 53.96 415.42 53.68Q417.39 53.40 419.01 52.80Q420.63 52.20 421.68 51.39Q422.73 50.59 422.70 49.74Q422.66 48.90 421.36 48.23Q420.06 47.56 417.04 47.21ZM430.05 69.71Q430.05 65.70 432.26 63.88Q434.48 62.05 438.06 62.05Q439.47 62.05 440.70 62.12Q441.93 62.19 443.05 62.47Q444.18 62.75 445.27 63.31Q446.36 63.88 447.55 64.93Q447.55 64.72 447.59 64.05Q447.63 63.38 447.63 62.61Q447.63 61.84 447.63 61.17Q447.63 60.50 447.63 60.22Q447.55 58.95 447.55 56.95Q447.55 54.95 447.24 52.84Q446.92 50.73 445.97 48.83Q445.02 46.93 442.91 45.95Q441.44 45.95 440.17 46.44Q438.91 46.93 437.64 47.49Q436.38 48.05 435.11 48.51Q433.84 48.97 432.37 48.97Q432.37 47.21 433.46 46.05Q434.55 44.89 436.09 44.26Q437.64 43.63 439.33 43.41Q441.02 43.20 442.28 43.20Q443.55 43.41 444.64 43.70Q445.73 43.98 446.68 44.82Q447.63 45.66 448.43 47.39Q449.24 49.11 449.84 52.20Q450.44 55.30 450.89 60.04Q451.35 64.79 451.63 71.68Q451.77 72.59 451.04 73.26Q450.30 73.93 449.03 74.39Q447.77 74.84 446.18 75.16Q444.60 75.48 442.98 75.62Q441.37 75.76 439.89 75.83Q438.41 75.90 437.43 75.90Q436.16 75.90 434.86 75.48Q433.56 75.05 432.47 74.25Q431.38 73.44 430.71 72.28Q430.05 71.12 430.05 69.71M439.19 64.79Q435.67 65.77 434.27 67.14Q432.86 68.52 433.04 69.78Q433.21 71.05 434.69 72.07Q436.16 73.09 438.27 73.40Q440.38 73.72 442.84 73.05Q445.30 72.38 447.55 70.41Q446.71 68.38 445.87 67.29Q445.02 66.20 444.04 65.63Q443.05 65.07 441.86 64.93Q440.66 64.79 439.19 64.79ZM458.10 70.06Q459.37 70.06 460.46 70.55Q461.55 71.05 462.60 71.64Q463.66 72.24 464.75 72.70Q465.84 73.16 467.10 73.16Q468.58 73.16 470.16 72.63Q471.74 72.10 473.08 71.15Q474.41 70.20 475.26 68.83Q476.10 67.46 476.10 65.84Q476.17 65.35 476.14 64.65Q476.10 63.95 475.68 63.21Q475.26 62.47 474.27 61.80Q473.29 61.13 471.43 60.78Q469.56 60.43 466.75 60.39Q463.94 60.36 459.79 60.92Q458.73 60.92 457.75 60.32Q456.77 59.73 455.99 58.85Q455.22 57.97 454.73 56.95Q454.23 55.93 454.23 55.02Q454.23 52.27 455.39 50.55Q456.55 48.83 458.38 47.81Q460.21 46.79 462.46 46.37Q464.71 45.95 467.03 45.95Q468.09 45.95 469.46 46.05Q470.83 46.16 471.99 46.61Q473.15 47.07 473.96 48.05Q474.77 49.04 474.77 50.80Q474.63 51.99 474.38 52.24Q474.13 52.48 473.68 52.10Q473.22 51.71 472.59 51.01Q471.95 50.30 471.07 49.64Q470.20 48.97 468.96 48.62Q467.73 48.27 466.19 48.62Q464.57 48.62 462.95 48.93Q461.34 49.25 460.04 50.02Q458.73 50.80 457.93 52.13Q457.12 53.47 457.12 55.51Q457.12 56.56 458.07 56.95Q459.02 57.34 460.60 57.34Q462.18 57.34 464.18 57.23Q466.19 57.13 468.30 57.13Q470.41 57.13 472.38 57.44Q474.34 57.76 475.86 58.71Q477.37 59.66 478.21 61.41Q479.05 63.17 478.84 65.98Q478.84 68.02 477.68 69.85Q476.52 71.68 474.73 73.05Q472.94 74.42 470.76 75.20Q468.58 75.97 466.54 75.76Q465.70 75.69 464.25 75.30Q462.81 74.91 461.44 74.21Q460.07 73.51 459.09 72.49Q458.10 71.47 458.10 70.06ZM482.57 59.23Q482.57 57.13 483.48 54.56Q484.40 51.99 485.98 49.78Q487.56 47.56 489.57 46.05Q491.57 44.54 493.75 44.54Q494.95 44.54 496.11 45.03Q497.27 45.52 498.36 46.33Q499.45 47.14 500.32 48.16Q501.20 49.18 501.70 50.30Q502.19 51.43 502.22 52.48Q502.26 53.54 501.63 54.31L486.79 57.05Q486.51 57.13 486.30 57.72Q486.09 58.32 485.95 59.23Q485.80 60.15 485.70 61.24Q485.59 62.33 485.52 63.35Q485.45 64.37 485.45 65.18Q485.45 65.98 485.45 66.41Q485.45 68.38 486.40 69.61Q487.35 70.84 488.83 71.47Q490.30 72.10 492.17 72.31Q494.03 72.52 495.86 72.52Q497.69 72.52 499.30 72.38Q500.92 72.24 501.98 72.24Q501.98 72.52 501.77 72.88Q501.55 73.23 501.27 73.54Q500.99 73.86 500.71 74.11Q500.43 74.35 500.36 74.42Q499.80 74.56 498.64 74.81Q497.48 75.05 496.18 75.27Q494.88 75.48 493.75 75.62Q492.63 75.76 492.20 75.76Q490.02 76.18 488.41 75.69Q486.79 75.20 485.66 74Q484.54 72.80 483.84 71.08Q483.13 69.36 482.78 67.39Q482.43 65.42 482.39 63.31Q482.36 61.20 482.57 59.23M492.77 47.21Q492.13 47.21 491.11 47.88Q490.09 48.55 489.21 49.57Q488.34 50.59 487.74 51.75Q487.14 52.91 487.35 53.75Q489.18 53.96 491.15 53.68Q493.12 53.40 494.73 52.80Q496.35 52.20 497.41 51.39Q498.46 50.59 498.43 49.74Q498.39 48.90 497.09 48.23Q495.79 47.56 492.77 47.21Z"></path></svg>